HIERARCHY
ROOT mixamorig7:Hips
{
	OFFSET 0.000000 99.793892 0.000000
	CHANNELS 6 Xposition Yposition Zposition Xrotation Yrotation Zrotation
	JOINT mixamorig7:Spine
	{
		OFFSET 0.000000 9.694397 -1.109700
		CHANNELS 3 Xrotation Yrotation Zrotation
		JOINT mixamorig7:Spine1
		{
			OFFSET 0.000000 11.310143 -1.294687
			CHANNELS 3 Xrotation Yrotation Zrotation
			JOINT mixamorig7:Spine2
			{
				OFFSET 0.000000 12.925888 -1.479643
				CHANNELS 3 Xrotation Yrotation Zrotation
				JOINT mixamorig7:Neck
				{
					OFFSET 0.000000 14.541641 -1.664600
					CHANNELS 3 Xrotation Yrotation Zrotation
					JOINT mixamorig7:Head
					{
						OFFSET 0.000000 6.944305 1.982500
						CHANNELS 3 Xrotation Yrotation Zrotation
						JOINT mixamorig7:HeadTop_End
						{
							OFFSET 0.000000 22.789597 6.506100
							CHANNELS 3 Xrotation Yrotation Zrotation
							End Site
							{
								OFFSET 0.000000 23.700119 0.000000
							}
						}
					}
				}
				JOINT mixamorig7:LeftShoulder
				{
					OFFSET 6.681300 12.786087 -1.621969
					CHANNELS 3 Xrotation Yrotation Zrotation
					JOINT mixamorig7:LeftArm
					{
						OFFSET 13.585576 -3.446136 0.085203
						CHANNELS 3 Xrotation Yrotation Zrotation
						JOINT mixamorig7:LeftForeArm
						{
							OFFSET 27.330299 0.000000 -0.000001
							CHANNELS 3 Xrotation Yrotation Zrotation
							JOINT mixamorig7:LeftHand
							{
								OFFSET 20.888802 0.000000 -0.000001
								CHANNELS 3 Xrotation Yrotation Zrotation
								JOINT mixamorig7:LeftHandThumb1
								{
									OFFSET 3.934731 -1.328445 2.632622
									CHANNELS 3 Xrotation Yrotation Zrotation
									JOINT mixamorig7:LeftHandThumb2
									{
										OFFSET 3.046997 -1.759186 1.759186
										CHANNELS 3 Xrotation Yrotation Zrotation
										JOINT mixamorig7:LeftHandThumb3
										{
											OFFSET 2.671288 -1.542267 1.542270
											CHANNELS 3 Xrotation Yrotation Zrotation
											JOINT mixamorig7:LeftHandThumb4
											{
												OFFSET 2.059540 -1.189072 1.189075
												CHANNELS 3 Xrotation Yrotation Zrotation
												End Site
												{
													OFFSET 1.871078 -1.157242 1.493111
												}
											}
										}
									}
								}
								JOINT mixamorig7:LeftHandIndex1
								{
									OFFSET 11.356102 -0.357925 2.480554
									CHANNELS 3 Xrotation Yrotation Zrotation
									JOINT mixamorig7:LeftHandIndex2
									{
										OFFSET 3.230431 0.000000 -0.000000
										CHANNELS 3 Xrotation Yrotation Zrotation
										JOINT mixamorig7:LeftHandIndex3
										{
											OFFSET 3.093842 0.000000 -0.000000
											CHANNELS 3 Xrotation Yrotation Zrotation
											JOINT mixamorig7:LeftHandIndex4
											{
												OFFSET 2.710304 0.000000 -0.000000
												CHANNELS 3 Xrotation Yrotation Zrotation
												End Site
												{
													OFFSET 2.710297 0.000031 0.002100
												}
											}
										}
									}
								}
								JOINT mixamorig7:LeftHandMiddle1
								{
									OFFSET 11.227951 0.000000 -0.000001
									CHANNELS 3 Xrotation Yrotation Zrotation
									JOINT mixamorig7:LeftHandMiddle2
									{
										OFFSET 3.465431 0.000000 0.000000
										CHANNELS 3 Xrotation Yrotation Zrotation
										JOINT mixamorig7:LeftHandMiddle3
										{
											OFFSET 3.340118 0.000000 0.000000
											CHANNELS 3 Xrotation Yrotation Zrotation
											JOINT mixamorig7:LeftHandMiddle4
											{
												OFFSET 2.993599 0.000000 0.000000
												CHANNELS 3 Xrotation Yrotation Zrotation
												End Site
												{
													OFFSET 2.993607 -0.000061 -0.003500
												}
											}
										}
									}
								}
								JOINT mixamorig7:LeftHandRing1
								{
									OFFSET 11.215385 -0.016006 -2.298895
									CHANNELS 3 Xrotation Yrotation Zrotation
									JOINT mixamorig7:LeftHandRing2
									{
										OFFSET 2.891907 0.000000 0.000000
										CHANNELS 3 Xrotation Yrotation Zrotation
										JOINT mixamorig7:LeftHandRing3
										{
											OFFSET 2.705215 0.000000 0.000000
											CHANNELS 3 Xrotation Yrotation Zrotation
											JOINT mixamorig7:LeftHandRing4
											{
												OFFSET 2.307037 0.000000 0.000000
												CHANNELS 3 Xrotation Yrotation Zrotation
												End Site
												{
													OFFSET 2.307007 0.000351 0.012295
												}
											}
										}
									}
								}
								JOINT mixamorig7:LeftHandPinky1
								{
									OFFSET 9.863464 -0.351425 -4.395246
									CHANNELS 3 Xrotation Yrotation Zrotation
									JOINT mixamorig7:LeftHandPinky2
									{
										OFFSET 2.647736 0.000000 0.000000
										CHANNELS 3 Xrotation Yrotation Zrotation
										JOINT mixamorig7:LeftHandPinky3
										{
											OFFSET 2.219719 0.000000 0.000000
											CHANNELS 3 Xrotation Yrotation Zrotation
											JOINT mixamorig7:LeftHandPinky4
											{
												OFFSET 1.855507 0.000000 0.000000
												CHANNELS 3 Xrotation Yrotation Zrotation
												End Site
												{
													OFFSET 1.855507 -0.000122 -0.005599
												}
											}
										}
									}
								}
							}
						}
					}
				}
				JOINT mixamorig7:RightShoulder
				{
					OFFSET -6.681300 12.786102 -1.707222
					CHANNELS 3 Xrotation Yrotation Zrotation
					JOINT mixamorig7:RightArm
					{
						OFFSET -13.585576 -3.446152 -0.085196
						CHANNELS 3 Xrotation Yrotation Zrotation
						JOINT mixamorig7:RightForeArm
						{
							OFFSET -27.318214 0.000000 0.000002
							CHANNELS 3 Xrotation Yrotation Zrotation
							JOINT mixamorig7:RightHand
							{
								OFFSET -20.889801 0.000000 0.000001
								CHANNELS 3 Xrotation Yrotation Zrotation
								JOINT mixamorig7:RightHandThumb1
								{
									OFFSET -4.042946 -1.401764 2.740883
									CHANNELS 3 Xrotation Yrotation Zrotation
									JOINT mixamorig7:RightHandThumb2
									{
										OFFSET -3.149010 -1.818085 1.818083
										CHANNELS 3 Xrotation Yrotation Zrotation
										JOINT mixamorig7:RightHandThumb3
										{
											OFFSET -2.605377 -1.504211 1.504218
											CHANNELS 3 Xrotation Yrotation Zrotation
											JOINT mixamorig7:RightHandThumb4
											{
												OFFSET -2.034538 -1.174637 1.174643
												CHANNELS 3 Xrotation Yrotation Zrotation
												End Site
												{
													OFFSET -1.808716 -1.141098 1.524937
												}
											}
										}
									}
								}
								JOINT mixamorig7:RightHandIndex1
								{
									OFFSET -11.498108 -0.223465 2.596514
									CHANNELS 3 Xrotation Yrotation Zrotation
									JOINT mixamorig7:RightHandIndex2
									{
										OFFSET -3.230072 0.000000 0.000000
										CHANNELS 3 Xrotation Yrotation Zrotation
										JOINT mixamorig7:RightHandIndex3
										{
											OFFSET -3.008400 0.000000 0.000000
											CHANNELS 3 Xrotation Yrotation Zrotation
											JOINT mixamorig7:RightHandIndex4
											{
												OFFSET -2.577469 0.000000 0.000000
												CHANNELS 3 Xrotation Yrotation Zrotation
												End Site
												{
													OFFSET -2.577400 -0.000381 -0.019196
												}
											}
										}
									}
								}
								JOINT mixamorig7:RightHandMiddle1
								{
									OFFSET -11.291573 0.000000 0.000000
									CHANNELS 3 Xrotation Yrotation Zrotation
									JOINT mixamorig7:RightHandMiddle2
									{
										OFFSET -3.513855 0.000000 0.000000
										CHANNELS 3 Xrotation Yrotation Zrotation
										JOINT mixamorig7:RightHandMiddle3
										{
											OFFSET -3.299538 0.000000 0.000000
											CHANNELS 3 Xrotation Yrotation Zrotation
											JOINT mixamorig7:RightHandMiddle4
											{
												OFFSET -2.888702 0.000000 0.000000
												CHANNELS 3 Xrotation Yrotation Zrotation
												End Site
												{
													OFFSET -2.888702 -0.000076 -0.003599
												}
											}
										}
									}
								}
								JOINT mixamorig7:RightHandRing1
								{
									OFFSET -11.158524 -0.069885 -2.264038
									CHANNELS 3 Xrotation Yrotation Zrotation
									JOINT mixamorig7:RightHandRing2
									{
										OFFSET -2.878105 0.000000 0.000000
										CHANNELS 3 Xrotation Yrotation Zrotation
										JOINT mixamorig7:RightHandRing3
										{
											OFFSET -2.739204 0.000000 0.000000
											CHANNELS 3 Xrotation Yrotation Zrotation
											JOINT mixamorig7:RightHandRing4
											{
												OFFSET -2.335304 0.000000 0.000000
												CHANNELS 3 Xrotation Yrotation Zrotation
												End Site
												{
													OFFSET -2.335297 0.000061 0.001999
												}
											}
										}
									}
								}
								JOINT mixamorig7:RightHandPinky1
								{
									OFFSET -9.865288 -0.197952 -4.417972
									CHANNELS 3 Xrotation Yrotation Zrotation
									JOINT mixamorig7:RightHandPinky2
									{
										OFFSET -2.659409 0.000000 0.000000
										CHANNELS 3 Xrotation Yrotation Zrotation
										JOINT mixamorig7:RightHandPinky3
										{
											OFFSET -2.181625 0.000000 0.000000
											CHANNELS 3 Xrotation Yrotation Zrotation
											JOINT mixamorig7:RightHandPinky4
											{
												OFFSET -1.923111 0.000000 0.000000
												CHANNELS 3 Xrotation Yrotation Zrotation
												End Site
												{
													OFFSET -1.923103 0.000153 0.005198
												}
											}
										}
									}
								}
							}
						}
					}
				}
			}
		}
	}
	JOINT mixamorig7:LeftUpLeg
	{
		OFFSET 8.726300 -5.393196 -0.445400
		CHANNELS 3 Xrotation Yrotation Zrotation
		JOINT mixamorig7:LeftLeg
		{
			OFFSET 0.203112 -40.995728 -2.240422
			CHANNELS 3 Xrotation Yrotation Zrotation
			JOINT mixamorig7:LeftFoot
			{
				OFFSET -0.203116 -41.811745 -4.341125
				CHANNELS 3 Xrotation Yrotation Zrotation
				JOINT mixamorig7:LeftToeBase
				{
					OFFSET 2.022961 -9.567262 15.917597
					CHANNELS 3 Xrotation Yrotation Zrotation
					JOINT mixamorig7:LeftToe_End
					{
						OFFSET 0.919500 0.587269 6.993709
						CHANNELS 3 Xrotation Yrotation Zrotation
						End Site
						{
							OFFSET 0.919500 0.587269 6.993710
						}
					}
				}
			}
		}
	}
	JOINT mixamorig7:RightUpLeg
	{
		OFFSET -8.726300 -5.393196 -0.458900
		CHANNELS 3 Xrotation Yrotation Zrotation
		JOINT mixamorig7:RightLeg
		{
			OFFSET -0.203119 -40.995686 -2.183443
			CHANNELS 3 Xrotation Yrotation Zrotation
			JOINT mixamorig7:RightFoot
			{
				OFFSET 0.203109 -41.812000 -3.686646
				CHANNELS 3 Xrotation Yrotation Zrotation
				JOINT mixamorig7:RightToeBase
				{
					OFFSET -2.022940 -9.566534 15.362668
					CHANNELS 3 Xrotation Yrotation Zrotation
					JOINT mixamorig7:RightToe_End
					{
						OFFSET -0.919481 0.587567 7.048032
						CHANNELS 3 Xrotation Yrotation Zrotation
						End Site
						{
							OFFSET -0.919481 0.587567 7.048031
						}
					}
				}
			}
		}
	}
}
MOTION
Frames: 4
Frame Time: 0.016667
54.045380 46.254532 -4.960777 -121.197308 -115.646659 -125.028443 11.539833 1.274736 -0.828678 10.867802 0.464394 -1.214094 10.863507 0.583583 -1.217477 4.418296 6.776880 -1.465282 4.472104 6.690822 -1.720120 0.000003 0.000001 -0.000001 1.608303 -13.237894 2.097618 -33.170756 -24.674589 -49.816606 0.000074 -99.993225 0.000048 -27.876302 -3.071916 5.385580 2.333980 -4.852037 -3.963508 13.533837 36.265893 -6.789684 18.237384 69.607646 3.188423 -0.000001 0.000003 0.000002 2.878038 7.353392 -58.659666 6.385715 5.826671 -95.251858 2.817861 5.005798 -58.730556 0.000000 -0.000000 -0.000002 2.878035 7.353388 -58.659666 6.420572 5.823400 -95.595246 1.278798 3.654857 -38.558781 0.000000 0.000000 0.000002 3.051704 7.454254 -60.629711 5.249905 5.820226 -84.092825 2.817850 5.005812 -58.730536 -0.000000 0.000000 -0.000003 2.878025 7.353394 -58.659666 3.100879 5.166425 -61.922249 2.817823 5.005807 -58.730550 0.000000 0.000000 0.000003 1.370872 12.623112 0.009337 -44.792316 39.696291 51.136687 0.000042 105.411273 -0.000030 -36.991587 -8.337614 -17.508551 2.454509 6.926612 5.617165 7.810653 -26.809490 -3.040621 18.936507 -62.858661 1.747881 0.000002 0.000001 -0.000003 2.770843 -6.512083 65.405359 4.589337 -4.656683 89.164698 1.495801 -3.421556 47.217531 0.000000 -0.000000 -0.000001 2.634512 -6.539964 74.809197 5.688688 -4.541736 102.810282 1.460399 -3.388485 46.621106 0.000000 0.000000 -0.000002 3.122543 -6.655078 70.080890 5.298710 -4.612892 97.926300 2.043393 -3.855886 55.828942 0.000000 0.000000 -0.000000 4.911919 -9.704406 53.806205 4.184457 -4.633169 84.168005 1.827785 -3.700681 52.558493 -0.000000 0.000000 -0.000001 -117.582717 -21.578770 12.087558 128.915996 -2.310803 0.378715 -24.598281 3.732285 -14.297402 0.000002 0.000008 -0.000004 0.000000 0.000005 0.000000 -116.730037 17.915392 -7.665593 132.696259 -8.447143 1.211399 -28.112627 -9.320123 1.563670 -0.050519 -0.000016 0.058997 -0.000001 -0.000000 0.000002 
54.028755 47.682587 -4.917893 -120.900878 -116.098135 -124.799564 11.268533 1.328780 -0.779480 10.615977 0.503721 -1.200020 10.611659 0.616657 -1.200993 4.457793 6.776955 -1.377719 4.509646 6.696536 -1.627119 -0.000000 -0.000001 -0.000001 1.624194 -13.169651 2.374579 -34.120012 -24.559028 -49.482969 0.000171 -100.628699 0.000136 -27.765692 -2.648269 5.597233 2.333983 -4.852039 -3.963497 13.533832 36.265893 -6.789681 18.237391 69.607646 3.188408 0.000000 0.000003 0.000002 2.878035 7.353388 -58.659673 6.385696 5.826688 -95.251837 2.817854 5.005791 -58.730556 -0.000000 -0.000000 0.000001 2.878039 7.353388 -58.659679 6.420564 5.823399 -95.595225 1.278817 3.654844 -38.558774 0.000000 0.000000 0.000002 3.051700 7.454257 -60.629704 5.249902 5.820235 -84.092831 2.817842 5.005817 -58.730563 -0.000000 -0.000000 -0.000001 2.878034 7.353378 -58.659659 3.100876 5.166425 -61.922249 2.817824 5.005806 -58.730543 -0.000000 0.000000 -0.000002 1.383758 12.693594 -0.074293 -45.924061 39.667796 51.144610 -0.000031 105.811754 0.000071 -36.929863 -8.397174 -17.642650 2.454479 6.926596 5.617169 7.810665 -26.809485 -3.040602 18.936488 -62.858668 1.747859 -0.000005 0.000002 -0.000000 2.770831 -6.512106 65.405372 4.589342 -4.656691 89.164691 1.495817 -3.421554 47.217504 0.000000 -0.000000 0.000001 2.634501 -6.539971 74.809231 5.688700 -4.541751 102.810289 1.460417 -3.388475 46.621106 -0.000000 -0.000000 0.000001 3.122532 -6.655072 70.080910 5.298697 -4.612894 97.926300 2.043389 -3.855856 55.828966 -0.000000 0.000000 -0.000001 4.911910 -9.704421 53.806215 4.184455 -4.633153 84.168005 1.827789 -3.700701 52.558521 0.000000 -0.000000 0.000002 -116.116385 -20.377180 12.182821 127.123672 -1.650318 0.567341 -24.867412 3.783077 -14.340549 0.000001 0.000018 0.000006 -0.000000 -0.000003 0.000001 -115.030658 17.062830 -8.108584 130.786921 -8.893639 1.191864 -28.371622 -9.499620 1.514847 -0.042358 -0.000025 0.049551 -0.000001 0.000001 0.000004 
53.955669 49.413399 -4.853334 -120.622985 -116.513684 -124.579358 10.937091 1.418621 -0.705203 10.308983 0.565712 -1.178678 10.304637 0.671150 -1.176463 4.480028 6.777398 -1.313273 4.529741 6.702188 -1.555858 0.000003 0.000000 0.000003 1.626620 -13.067921 2.538967 -34.992920 -24.477704 -49.266807 0.000078 -101.066179 0.000075 -27.628496 -2.292143 5.648856 2.334006 -4.852041 -3.963488 13.533837 36.265893 -6.789675 18.237392 69.607646 3.188417 0.000003 0.000002 -0.000001 2.878049 7.353395 -58.659666 6.385718 5.826666 -95.251858 2.817856 5.005787 -58.730556 0.000000 0.000000 0.000004 2.878046 7.353400 -58.659666 6.420569 5.823402 -95.595239 1.278806 3.654833 -38.558764 0.000000 -0.000000 0.000001 3.051710 7.454270 -60.629711 5.249896 5.820223 -84.092818 2.817846 5.005804 -58.730550 -0.000000 0.000000 -0.000002 2.878034 7.353404 -58.659666 3.100878 5.166426 -61.922242 2.817821 5.005807 -58.730550 -0.000000 -0.000000 0.000001 1.391016 12.732839 -0.121059 -46.856184 39.750519 51.071739 0.000094 106.039247 -0.000080 -36.934750 -8.325895 -17.780517 2.454494 6.926597 5.617163 7.810671 -26.809488 -3.040631 18.936474 -62.858661 1.747866 -0.000001 0.000003 -0.000003 2.770837 -6.512086 65.405379 4.589340 -4.656694 89.164684 1.495817 -3.421537 47.217508 0.000000 -0.000000 0.000001 2.634503 -6.539976 74.809225 5.688694 -4.541755 102.810282 1.460414 -3.388484 46.621123 0.000000 -0.000000 0.000000 3.122545 -6.655081 70.080896 5.298703 -4.612879 97.926321 2.043375 -3.855873 55.828990 -0.000000 -0.000000 0.000001 4.911893 -9.704423 53.806202 4.184487 -4.633180 84.168011 1.827791 -3.700681 52.558534 0.000000 -0.000000 -0.000001 -114.201111 -19.016850 12.416920 124.940621 -1.056457 0.761622 -25.147285 3.831254 -14.348195 0.000003 0.000007 -0.000009 0.000000 0.000002 0.000000 -112.910875 16.142872 -8.606666 128.468973 -9.161383 1.188679 -28.546226 -9.752295 1.571928 -0.080300 -0.000132 0.094105 -0.000001 -0.000001 0.000001 
53.813362 51.388535 -4.764712 -120.420989 -116.841751 -124.420857 10.566555 1.536617 -0.607071 9.965085 0.646176 -1.149483 9.960718 0.742944 -1.143529 4.480967 6.777142 -1.268714 4.528359 6.706716 -1.503266 0.000001 -0.000002 -0.000000 1.618384 -12.945828 2.601320 -35.804740 -24.475561 -49.094662 0.000104 -101.340207 0.000082 -27.527416 -1.889136 5.575855 2.334007 -4.852031 -3.963505 13.533839 36.265900 -6.789679 18.237391 69.607646 3.188414 0.000000 0.000005 0.000004 2.878037 7.353417 -58.659666 6.385730 5.826669 -95.251851 2.817865 5.005796 -58.730550 0.000000 -0.000000 0.000001 2.878032 7.353408 -58.659659 6.420593 5.823410 -95.595239 1.278816 3.654835 -38.558774 0.000000 -0.000000 0.000001 3.051709 7.454258 -60.629711 5.249910 5.820219 -84.092804 2.817849 5.005798 -58.730550 -0.000000 0.000000 0.000001 2.878017 7.353412 -58.659673 3.100878 5.166426 -61.922249 2.817823 5.005806 -58.730550 -0.000000 0.000000 0.000002 1.393200 12.738621 -0.141215 -47.605469 39.902385 50.894280 -0.000040 106.133954 0.000068 -37.111785 -8.132004 -17.983063 2.454508 6.926599 5.617156 7.810654 -26.809485 -3.040623 18.936513 -62.858675 1.747888 -0.000001 0.000006 -0.000004 2.770835 -6.512104 65.405379 4.589347 -4.656674 89.164684 1.495797 -3.421556 47.217531 0.000000 0.000000 -0.000002 2.634506 -6.539965 74.809218 5.688690 -4.541747 102.810302 1.460419 -3.388485 46.621106 0.000000 0.000000 -0.000000 3.122545 -6.655070 70.080910 5.298714 -4.612883 97.926294 2.043375 -3.855860 55.828976 0.000001 -0.000000 0.000001 4.911917 -9.704424 53.806215 4.184477 -4.633161 84.168025 1.827800 -3.700688 52.558528 -0.000000 -0.000000 -0.000001 -111.877727 -17.562190 12.778375 122.423245 -0.587320 0.943865 -25.390813 3.863560 -14.296803 0.000002 -0.000003 0.000002 -0.000000 -0.000003 0.000000 -110.404844 15.182324 -9.119069 125.807153 -9.260925 1.200615 -28.641017 -10.056510 1.703390 -0.151548 -0.000479 0.177967 -0.000001 -0.000002 -0.000001 
